# xmcd
#
# Track frame offsets: 
#        150
#        14890
#        20814
#        33692
#        48621
#        65448
#        81039
#        90262
#        98814
#        125811
#        141958
#        156737
#        169173
#        189854
#        202764
#        215796
#
# Disc length: 2933 seconds
#
# Revision: 0
# Processed by: cddbd v1.5.2PL0 Copyright (c) Steve Scherf et al.
# Submitted via: ExactAudioCopy v1.0b3
#
DISCID=ec0b7310
DTITLE=Barry Cuda and Richard Crooks - Snowy Morning Blues
DYEAR=2011
DGENRE=Blues
TTITLE0=Snowy Morning Blues
TTITLE1=Lusiana
TTITLE2=Funky  Butt
TTITLE3=Whirlaway
TTITLE4=Vicksburg Blues
TTITLE5=Adios a Cuba
TTITLE6=La Comparsa
TTITLE7=Las Vegas Stomp
TTITLE8=Mess Around
TTITLE9=Michigan Water
TTITLE10=Pop's Dilemma
TTITLE11=Shreveport Farewell
TTITLE12=Cafe Society Blues
TTITLE13=Yellow Dog Blues
TTITLE14=Blue Coat Man
TTITLE15=Three Quarter Blues
EXTD=
EXTT0=
EXTT1=
EXTT2=
EXTT3=
EXTT4=
EXTT5=
EXTT6=
EXTT7=
EXTT8=
EXTT9=
EXTT10=
EXTT11=
EXTT12=
EXTT13=
EXTT14=
EXTT15=
PLAYORDER=
